<?xml version="1.0" encoding="utf-8"?>
<!-- Generator: Adobe Illustrator 15.1.0, SVG Export Plug-In . SVG Version: 6.00 Build 0)  -->
<!DOCTYPE svg PUBLIC "-//W3C//DTD SVG 1.1//EN" "http://www.w3.org/Graphics/SVG/1.1/DTD/svg11.dtd">
<svg version="1.1" id="Camada_1" xmlns="http://www.w3.org/2000/svg" xmlns:xlink="http://www.w3.org/1999/xlink" x="0px" y="0px"
	 width="80px" height="80px" viewBox="0 0 80 80" enable-background="new 0 0 80 80" xml:space="preserve">
<path fill="#FFFFFF" d="M70.797,53.507c1.08,0,1.982,0.361,2.701,1.082c0.721,0.719,1.082,1.621,1.082,2.701v13.506
	c0,1.082-0.361,1.982-1.082,2.703c-0.719,0.721-1.621,1.08-2.701,1.08c-18.131,0-33.563-6.363-46.287-19.09
	C11.783,42.762,5.42,27.333,5.42,9.203c0-1.081,0.359-1.981,1.082-2.702c0.719-0.72,1.621-1.08,2.701-1.08h13.508
	c1.08,0,1.98,0.36,2.701,1.081c0.719,0.721,1.08,1.621,1.08,2.702c0,4.923,0.781,9.545,2.342,13.867
	c0.477,1.441,0.18,2.702-0.902,3.782l-8.463,8.465c5.762,11.166,14.227,19.63,25.395,25.395l8.466-8.465
	c0.838-1.082,2.098-1.382,3.78-0.9C61.791,52.787,66.354,53.507,70.797,53.507z"/>
</svg>
