<?xml version="1.0" encoding="utf-8"?>
<!-- Generator: Adobe Illustrator 21.0.0, SVG Export Plug-In . SVG Version: 6.00 Build 0)  -->
<svg version="1.1" id="Camada_1" xmlns="http://www.w3.org/2000/svg" xmlns:xlink="http://www.w3.org/1999/xlink" x="0px" y="0px"
	 viewBox="0 0 360 240" style="enable-background:new 0 0 360 240;" xml:space="preserve">
<style type="text/css">
	.st0{fill:#FFFFFF;}
</style>
<g>
	<polygon class="st0" points="117.8,38.3 117.8,110 180,110 242.2,110.2 242.2,96.5 180,96.5 131.4,96.5 131.4,51.9 180,51.9 
		242.2,51.9 242.2,38.3 180,38.3 	"/>
	<path class="st0" d="M180,9.5H88.7v129.6H180h91.1V9.5H180z M102.3,23h77.5h77.3v44.4H180h-33.3V81H180h77.5v44.4H180h-77.7V23z"/>
	<path class="st0" d="M205.6,157.3c-0.2-0.6-0.6-1-1.2-1.2c-0.2-0.2-0.6-0.2-1-0.4c-0.2-0.2-0.6-0.2-1.2-0.2c-0.6-0.2-1-0.2-1.7-0.2
		c-0.6-0.2-1.6-0.2-2.5-0.2s-2.1-0.2-3.7-0.2c-1.2,0-2.1-0.2-2.9-0.2c-0.8,0-1.6,0-2.1-0.2c-0.6,0-1,0-1.4-0.2
		c-0.2,0-0.6-0.2-0.6-0.2c-0.4-0.2-0.6-0.2-0.8-0.4c-0.2-0.2-0.2-0.6-0.2-1s0-0.6,0.2-0.8l0.4-0.6c0.2-0.2,0.6-0.2,1-0.2
		c0.4-0.2,1-0.2,1.7-0.2s1.7,0,2.7,0s1.7,0,2.3,0c0.6,0,1.2,0,1.7,0c0.4,0,0.8,0,1,0s0.6,0.2,0.6,0.2l0.4,0.2l0.4,0.4l0.2,0.6
		c0,0.2,0.2,0.6,0.2,1h6.4v-0.6v-0.4c0-1,0-1.6-0.2-2.1c-0.2-0.6-0.2-1.2-0.6-1.6c-0.2-0.4-0.6-0.8-1-1c-0.4-0.2-0.8-0.6-1.4-0.6
		c-0.6-0.2-1.2-0.2-1.9-0.4c-0.8-0.2-1.7-0.2-2.9-0.2c-1.2,0-2.5,0-4.1,0c-1.7,0-3.3,0-4.5,0c-1.2,0-2.3,0.2-3.1,0.2
		c-0.8,0-1.4,0.2-1.7,0.2c-1,0.2-1.7,0.6-2.5,1c-0.6,0.6-1,1.4-1.4,2.1c-0.4,0.8-0.4,1.9-0.4,3.3c0,1.2,0.2,2.1,0.4,2.9
		c0.2,0.8,0.6,1.4,1,1.9c0.4,0.6,1.2,0.8,2.1,1c1,0.2,1.9,0.4,3.3,0.4l1.7,0.2l3.5,0.2l5.2,0.2c0.6,0,1.2,0,1.6,0.2
		c0.4,0.2,0.6,0.2,0.8,0.6c0.2,0.4,0.2,0.6,0.2,1c0,0.2,0,0.6,0,0.8l-0.2,0.6c-0.2,0.2-0.4,0.2-0.6,0.4c-0.2,0.2-0.6,0.2-1.2,0.2
		s-1.2,0-1.9,0H193h-2.5c-0.6,0-1.2,0-1.6,0c-0.4,0-0.8,0-1-0.2c-0.2,0-0.6-0.2-0.6-0.2l-0.4-0.2l-0.4-0.4c-0.2-0.2-0.2-0.4-0.2-0.6
		s0-0.6,0-1H180v1c0,1,0.2,1.7,0.2,2.5c0.2,0.6,0.4,1.2,0.6,1.7c0.2,0.4,0.6,0.8,1.2,1c0.4,0.2,1,0.6,1.4,0.6
		c0.6,0.2,1.4,0.2,2.1,0.4c1,0.2,1.7,0.2,3.1,0.2c1.2,0,2.7,0,4.3,0c1.6,0,2.9,0,4.1,0c1.2,0,2.1,0,2.9-0.2c0.8-0.2,1.6-0.2,2.1-0.2
		c0.6-0.2,1-0.2,1.4-0.2c0.8-0.2,1.4-0.6,1.7-1.2c0.4-0.6,0.8-1.4,1-2.1c0.2-1,0.4-1.9,0.4-3.1c0-1-0.2-1.7-0.2-2.5
		C206.2,158.3,205.8,157.9,205.6,157.3"/>
	<polygon class="st0" points="264.3,146.6 264.7,162.9 263.9,162.9 252.5,146.6 240.8,146.6 240.8,168.5 247.6,168.5 247.4,152.3 
		248.2,152.3 259.6,168.5 271.1,168.5 271.1,146.6 	"/>
	<path class="st0" d="M116.6,161.2c0-0.2,0-0.6,0-1h-6.6c0,0.6,0,1,0,1.4s-0.2,0.6-0.2,1s-0.4,0.4-0.6,0.6s-0.8,0.2-1.4,0.2
		c-0.6,0.2-1.2,0.2-2.1,0.2s-1.7,0-3.1,0c-1.4,0-2.5,0-3.3-0.2c-1,0-1.5-0.2-2.1-0.4c-0.6-0.2-1-0.6-1-1c-0.2-0.4-0.4-1-0.4-1.7
		c0-0.6-0.2-1.6,0-2.7c0-1,0-1.9,0.2-2.7c0-0.6,0.2-1.2,0.2-1.7c0.2-0.4,0.4-0.6,0.6-1c0.2-0.2,0.4-0.2,0.6-0.2
		c0.2-0.2,0.6-0.2,1-0.2c0.4,0,1-0.2,1.7-0.2c0.6,0,1.6,0,2.5,0c1.4,0,2.5,0,3.5,0s1.7,0.2,2.1,0.2c0.6,0.2,0.8,0.2,1,0.4l0.2,0.4
		c0.2,0.2,0.2,0.2,0.2,0.6c0,0.2,0,0.6,0.2,1h6.6v-1c0-1.2-0.2-2.1-0.2-2.9c-0.2-0.8-0.4-1.4-0.8-1.9c-0.4-0.6-1-1-1.4-1.2
		c-0.4-0.2-0.8-0.4-1.4-0.6c-0.6-0.2-1-0.2-1.7-0.2c-0.6-0.2-1.5-0.2-2.5-0.2s-2.1,0-3.7,0c-1.9,0-3.5,0-5,0c-1.6,0-2.5,0.2-3.7,0.2
		c-1,0.2-1.9,0.2-2.5,0.4c-0.8,0.2-1.4,0.4-1.7,0.6c-0.6,0.2-1,0.6-1.2,1c-0.2,0.4-0.6,0.8-0.8,1.4c-0.2,0.2-0.2,0.6-0.2,1
		c-0.2,0.4-0.2,1-0.2,1.4c0,0.6-0.2,1.4-0.2,2.1c0,0.8,0,1.9,0,3.1c0,1.4,0,2.5,0,3.5s0.2,1.6,0.2,2.1c0.2,0.8,0.2,1.4,0.4,1.9
		c0.2,0.6,0.4,1,0.8,1.4c0.2,0.4,0.6,0.6,1.2,1c0.4,0.2,0.8,0.4,1.2,0.6c0.6,0.2,1,0.2,1.7,0.4c0.6,0.2,1.4,0.2,2.3,0.2
		s2.1,0.2,3.3,0.2c1.4,0,2.7,0,4.5,0c1.2,0,2.1,0,3.3,0c1,0,1.7-0.2,2.5-0.2c0.6-0.2,1.4-0.2,1.7-0.2c0.6-0.2,1-0.2,1.4-0.4
		c0.8-0.2,1.4-0.6,1.9-1c0.6-0.6,1-1.2,1-1.7c0.2-0.8,0.4-1.7,0.4-2.9v-0.4C116.6,161.6,116.6,161.4,116.6,161.2"/>
	<path class="st0" d="M148,150.7c-0.2-0.8-0.4-1.4-0.6-1.7c-0.2-0.6-0.6-1-1-1.2c-0.2-0.2-0.6-0.4-1-0.6s-1-0.4-1.6-0.4
		c-0.6-0.2-1.4-0.2-2.1-0.2c-1-0.2-1.9-0.2-3.3-0.2c-1.4,0-2.9,0-4.6,0c-1.7,0-3.3,0-4.7,0c-1.4,0-2.3,0-3.3,0.2
		c-1,0-1.7,0.2-2.1,0.2c-0.6,0.2-1,0.2-1.5,0.4c-0.4,0.2-0.8,0.4-1,0.6c-0.4,0.2-0.8,0.6-1,1.2c-0.2,0.6-0.6,1-0.6,1.7
		c-0.2,0.8-0.2,1.7-0.4,2.7s-0.2,2.3-0.2,3.9c0,1.6,0,2.9,0.2,4.1c0,1.2,0.2,2.1,0.4,2.9c0.2,0.8,0.4,1.4,0.6,1.7
		c0.2,0.6,0.6,1,1,1.2c0.4,0.2,0.6,0.6,1,0.6c0.4,0.2,1,0.2,1.5,0.4c0.6,0.2,1.4,0.2,2.1,0.2s1.9,0.2,3.3,0.2c1.4,0,2.9,0,4.7,0l0,0
		c1.7,0,3.3,0,4.6,0s2.3,0,3.3-0.2c1-0.2,1.7-0.2,2.1-0.2c0.6-0.2,1-0.2,1.6-0.4c0.4-0.2,0.8-0.4,1-0.6c0.4-0.2,0.8-0.6,1-1.2
		c0.2-0.6,0.6-1,0.6-1.7c0.2-0.8,0.2-1.7,0.4-2.7c0.2-1,0.2-2.5,0.2-4.1c0-1.6,0-2.9-0.2-3.9C148.4,152.5,148.2,151.5,148,150.7
		 M141.8,160.2c0,0.6-0.2,1-0.2,1.4s-0.4,0.6-0.6,0.8l-0.6,0.4c-0.2,0.2-0.6,0.2-0.8,0.2c-0.4,0-0.8,0.2-1.4,0.2s-1.2,0.2-1.9,0.2
		s-1.7,0-2.7,0l0,0c-1,0-1.9,0-2.7,0c-0.8,0-1.4,0-1.9-0.2c-0.6,0-1-0.2-1.4-0.2c-0.4-0.2-0.6-0.2-0.8-0.2l-0.6-0.4l-0.6-0.4
		c-0.2-0.2-0.2-0.6-0.2-0.8c-0.2-0.2-0.2-0.6-0.2-1.2s0-1,0-1.7c0-1,0-1.7,0-2.3c0-0.6,0.2-1.2,0.2-1.6c0.2-0.4,0.2-0.6,0.2-1
		c0.2-0.2,0.2-0.6,0.4-0.6c0.2-0.2,0.4-0.2,0.6-0.4c0.2-0.2,0.8-0.2,1.4-0.2c0.6,0,1.4-0.2,2.1-0.2c1,0,1.9,0,3.3,0
		c1.2,0,2.1,0,2.9,0s1.4,0,1.9,0.2c0.6,0,1,0.2,1.4,0.2c0.2,0.2,0.6,0.2,0.8,0.2l0.6,0.4c0.2,0.2,0.2,0.4,0.4,0.6
		c0.2,0.2,0.2,0.6,0.2,1s0.2,1,0.2,1.4c0,0.6,0,1.4,0,2.1C142,159,141.8,159.8,141.8,160.2z"/>
	<path class="st0" d="M177.9,149.5c-0.2-0.6-0.4-1-0.6-1.2c-0.2-0.4-0.6-0.6-1-1l-0.6-0.4l-0.6-0.2c-0.2,0-0.6-0.2-1-0.2
		s-0.8,0-1.4,0c-0.6,0-1.4,0-2.1,0h-3.1h-2.5h-13.6v21.9h6.6v-5.4h7h2.5c0.6,0,1.2,0,1.7,0c0.4,0,0.8,0,1,0.2c0.2,0,0.6,0.2,0.6,0.2
		l0.4,0.2c0.2,0.2,0.2,0.4,0.4,0.6c0.2,0.2,0.2,0.6,0.2,1.2s0,1.2,0,1.9v1.2h6.2v-2.1c0-1.4,0-2.3,0-3.1c-0.2-0.8-0.2-1.4-0.6-1.7
		c-0.2-0.6-0.6-0.8-1.2-1c-0.6-0.2-1.2-0.4-2.1-0.4c0.4-0.2,0.8-0.2,1.2-0.2c0.2-0.2,0.6-0.2,0.8-0.2l0.6-0.4
		c0.2-0.2,0.6-0.6,0.8-0.8c0.2-0.2,0.4-0.6,0.6-1c0.2-0.4,0.2-1,0.2-1.4s0.2-1.4,0.2-2.1c0-1,0-1.7-0.2-2.5
		C178.1,150.7,178.1,149.9,177.9,149.5 M171.5,156.3c-0.2,0.4-0.2,0.6-0.6,0.8l-0.2,0.2l-0.2,0.2c-0.2,0-0.2,0-0.6,0s-0.6,0-1,0
		s-1,0-1.7,0h-2.5h-7v-5.4h7h2.5c0.8,0,1.4,0,1.7,0c0.4,0,0.8,0,1,0h0.6l0.4,0.2l0.6,0.4c0.2,0.2,0.2,0.6,0.2,0.8
		c0.2,0.2,0.2,0.8,0.2,1.2C171.7,155.4,171.7,155.9,171.5,156.3z"/>
	<path class="st0" d="M223.2,146.6h-5l-11.6,21.9h7.6l1.7-3.7h7.4h7.2l1.7,3.7h7.6l-11.4-21.9H223.2z M223.2,160h-4.8l4.1-8.1h0.6
		h0.6l4.1,8.1H223.2z"/>
	<path class="st0" d="M32,210.4h2.5l7,15.7h-2.9l-1.5-3.7h-7.4l-1.6,3.7H25L32,210.4z M35.9,219.8l-2.7-6.2l-2.5,6.2H35.9z"/>
	<polygon class="st0" points="49.2,214.2 52.1,214.2 55.2,222.8 58.3,214.2 61.2,214.2 56.4,226 54.1,226 	"/>
	<path class="st0" d="M63.6,210h2.9v2.5h-2.9V210z M63.6,214.2h2.7v11.6h-2.7V214.2z"/>
	<path class="st0" d="M69.2,220L69.2,220c0-3.9,2.5-6.2,5.4-6.2c1.9,0,3.1,1,4.1,2.1v-6.2h2.7v16.1h-2.9v-1.9
		c-1,1.2-2.1,2.1-4.1,2.1C71.9,226.2,69.2,223.9,69.2,220 M78.7,220L78.7,220c0-2.3-1.6-3.7-3.3-3.7s-3.3,1.4-3.3,3.7l0,0
		c0,2.1,1.6,3.7,3.3,3.7C77.1,223.9,78.7,222.4,78.7,220z"/>
	<path class="st0" d="M83.9,222.6L83.9,222.6c0-2.5,1.9-3.7,4.8-3.7c1.4,0,2.1,0.2,3.1,0.6v-0.2c0-1.7-1-2.5-2.9-2.5
		c-1.4,0-2.3,0.2-3.3,0.8l-0.6-2.1c1.4-0.6,2.5-1,4.5-1c1.7,0,3.1,0.6,3.9,1.4c1,1,1.4,2.1,1.4,3.7v7h-2.5v-1.4
		c-0.8,1-2.1,1.7-3.7,1.7C85.8,226.2,83.9,224.9,83.9,222.6 M92,221.8V221c-0.6-0.2-1.6-0.6-2.5-0.6c-1.7,0-2.7,0.8-2.7,1.9l0,0
		c0,1.2,1,1.7,2.3,1.7C90.5,224.3,92,223.1,92,221.8z"/>
	<path class="st0" d="M104.8,222.6v-6.2h-1.4V214h1.4v-3.3h2.7v3.3h3.1v2.3h-3.1v5.8c0,1,0.6,1.4,1.4,1.4c0.6,0,1.2-0.2,1.7-0.4v2.1
		c-0.6,0.4-1.4,0.6-2.5,0.6C106.4,226.2,104.8,225.3,104.8,222.6"/>
	<path class="st0" d="M113.5,214.2h2.7v2.5c0.8-1.7,2.1-2.9,4.1-2.9v2.9h-0.2c-2.3,0-4.1,1.6-4.1,4.7v4.5h-2.7v-11.6H113.5z"/>
	<path class="st0" d="M121.3,222.6L121.3,222.6c0-2.5,1.9-3.7,4.8-3.7c1.4,0,2.1,0.2,3.1,0.6v-0.2c0-1.7-1-2.5-2.9-2.5
		c-1.4,0-2.3,0.2-3.3,0.8l-0.6-2.1c1.4-0.6,2.5-1,4.5-1c1.7,0,2.9,0.6,3.9,1.4c1,1,1.4,2.1,1.4,3.7v7h-2.5v-1.4
		c-0.8,1-2.1,1.7-3.7,1.7C123.2,226.2,121.3,224.9,121.3,222.6 M129.2,221.8V221c-0.6-0.2-1.6-0.6-2.5-0.6c-1.7,0-2.7,0.8-2.7,1.9
		l0,0c0,1.2,1,1.7,2.3,1.7C128.1,224.3,129.2,223.1,129.2,221.8z"/>
	<path class="st0" d="M135.6,222.6v-6.2h-1.4V214h1.4v-3.3h2.7v3.3h3.1v2.3h-3.1v5.8c0,1,0.6,1.4,1.4,1.4c0.6,0,1.2-0.2,1.7-0.4v2.1
		c-0.6,0.4-1.4,0.6-2.5,0.6C137,226.2,135.6,225.3,135.6,222.6"/>
	<path class="st0" d="M143.4,222.6L143.4,222.6c0-2.5,1.9-3.7,4.8-3.7c1.4,0,2.1,0.2,3.1,0.6v-0.2c0-1.7-1-2.5-2.9-2.5
		c-1.4,0-2.3,0.2-3.3,0.8l-0.6-2.1c1.4-0.6,2.5-1,4.5-1c1.7,0,3.1,0.6,3.9,1.4c1,1,1.4,2.1,1.4,3.7v7h-2.5v-1.4
		c-0.8,1-2.1,1.7-3.7,1.7C145.3,226.2,143.4,224.9,143.4,222.6 M151.5,221.8V221c-0.6-0.2-1.6-0.6-2.7-0.6c-1.7,0-2.7,0.8-2.7,1.9
		l0,0c0,1.2,1,1.7,2.3,1.7C150,224.3,151.5,223.1,151.5,221.8z"/>
	<path class="st0" d="M156.6,220L156.6,220c0-3.9,2.5-6.2,5.4-6.2c1.9,0,3.1,1,4.1,2.1v-6.2h2.7v16.1h-2.7v-1.9
		c-1,1.2-2.1,2.1-4.1,2.1C159.3,226.2,156.6,223.9,156.6,220 M166.1,220L166.1,220c0-2.3-1.6-3.7-3.3-3.7c-1.7,0-3.3,1.4-3.3,3.7
		l0,0c0,2.1,1.6,3.7,3.3,3.7C164.5,223.7,166.1,222.4,166.1,220z"/>
	<path class="st0" d="M171.3,222.6L171.3,222.6c0-2.5,1.9-3.7,4.8-3.7c1.4,0,2.1,0.2,3.1,0.6v-0.2c0-1.7-1-2.5-2.9-2.5
		c-1.4,0-2.3,0.2-3.3,0.8l-0.6-2.1c1.4-0.6,2.5-1,4.5-1c1.7,0,3.1,0.6,3.9,1.4c1,1,1.4,2.1,1.4,3.7v7h-2.5v-1.4
		c-0.8,1-2.1,1.7-3.7,1.7C173.2,226.2,171.3,224.9,171.3,222.6 M179.2,221.8V221c-0.6-0.2-1.6-0.6-2.5-0.6c-1.7,0-2.7,0.8-2.7,1.9
		l0,0c0,1.2,1,1.7,2.3,1.7C178.1,224.3,179.2,223.1,179.2,221.8z"/>
	<path class="st0" d="M191,220.2L191,220.2c0-3.3,2.5-6.2,6.2-6.2c2.1,0,3.5,0.8,4.6,2.1l-1.7,1.7c-0.8-1-1.7-1.4-2.9-1.4
		c-1.9,0-3.3,1.7-3.3,3.7l0,0c0,2.1,1.4,3.7,3.5,3.7c1.4,0,2.1-0.6,2.9-1.4l1.7,1.6c-1.2,1.4-2.5,2.1-4.8,2.1
		C193.8,226.2,191,223.3,191,220.2"/>
	<path class="st0" d="M203.4,220.2L203.4,220.2c0-3.3,2.5-6.2,6.2-6.2c3.7,0,6.2,2.7,6.2,6.2l0,0c0,3.3-2.5,6.2-6.2,6.2
		C206.2,226.2,203.4,223.3,203.4,220.2 M213.3,220.2L213.3,220.2c0-2.1-1.4-3.7-3.7-3.7c-2.1,0-3.5,1.7-3.5,3.7l0,0
		c0,2.1,1.4,3.7,3.5,3.7C211.8,223.9,213.3,222.2,213.3,220.2z"/>
	<path class="st0" d="M218.8,214.2h2.7v1.7c0.8-1,1.7-2.1,3.5-2.1c1.7,0,2.9,0.8,3.5,2.1c1-1.4,2.1-2.1,3.9-2.1
		c2.5,0,4.1,1.6,4.1,4.5v7.4h-2.7v-6.6c0-1.7-1-2.9-2.3-2.9s-2.5,1-2.5,2.9v6.6h-2.7v-6.6c0-1.7-1-2.9-2.3-2.9
		c-1.4,0-2.5,1.2-2.5,2.9v6.6h-2.7L218.8,214.2L218.8,214.2z"/>
	<path class="st0" d="M246.5,214.2h2.7v2.5c0.8-1.7,2.1-2.9,4.1-2.9v2.9H253c-2.3,0-4.1,1.6-4.1,4.7v4.5h-2.7v-11.6H246.5z"/>
	<path class="st0" d="M254.4,220.2L254.4,220.2c0-3.3,2.3-6.2,5.8-6.2c3.7,0,5.6,2.9,5.6,6.2c0,0.2,0,0.6,0,0.8h-8.5
		c0.2,1.9,1.7,2.9,3.3,2.9c1.4,0,2.1-0.6,3.1-1.4l1.6,1.4c-1.2,1.4-2.5,2.1-4.8,2.1C257.1,226.2,254.4,223.7,254.4,220.2
		 M263.1,219.3c-0.2-1.7-1.2-3.1-2.9-3.1s-2.7,1.4-2.9,3.1H263.1z"/>
	<path class="st0" d="M267.6,224.3l1.2-1.7c1.4,1,2.5,1.4,3.9,1.4c1.2,0,1.7-0.6,1.7-1.4l0,0c0-1-1.4-1.2-2.5-1.7
		c-1.7-0.6-3.7-1.2-3.7-3.3l0,0c0-2.1,1.7-3.5,4.1-3.5c1.4,0,3.1,0.6,4.3,1.4l-1,1.9c-1.2-0.6-2.3-1.2-3.3-1.2s-1.7,0.6-1.7,1.2l0,0
		c0,1,1.4,1.2,2.5,1.7c1.7,0.6,3.7,1.4,3.7,3.3l0,0c0,2.5-1.9,3.7-4.3,3.7C270.9,226.2,269.1,225.5,267.6,224.3"/>
	<path class="st0" d="M279.8,214.2h2.7v1.9c1-1.2,2.1-2.1,4.1-2.1c2.7,0,5.4,2.1,5.4,6.2l0,0c0,3.9-2.5,6.2-5.4,6.2
		c-1.9,0-3.1-1-4.1-2.1v5.4h-2.7V214.2z M289.1,220L289.1,220c0-2.3-1.6-3.7-3.3-3.7s-3.3,1.6-3.3,3.7l0,0c0,2.1,1.5,3.7,3.3,3.7
		C287.5,223.9,289.1,222.4,289.1,220z"/>
	<path class="st0" d="M293.9,220.2L293.9,220.2c0-3.3,2.3-6.2,5.8-6.2c3.7,0,5.6,2.9,5.6,6.2c0,0.2,0,0.6,0,0.8h-8.5
		c0.2,1.9,1.7,2.9,3.3,2.9c1.4,0,2.1-0.6,3.1-1.4l1.6,1.4c-1.2,1.4-2.5,2.1-4.8,2.1C296.4,226.2,293.9,223.7,293.9,220.2
		 M302.6,219.3c-0.2-1.7-1.2-3.1-2.9-3.1c-1.7,0-2.9,1.4-2.9,3.1H302.6z"/>
	<path class="st0" d="M308.1,210h2.9v2.5h-2.9V210z M308.1,214.2h2.7v11.6h-2.7V214.2z"/>
	<path class="st0" d="M314.9,222.6v-6.2h-1.4V214h1.4v-3.3h2.7v3.3h3.1v2.3h-3.1v5.8c0,1,0.6,1.4,1.4,1.4c0.6,0,1.2-0.2,1.7-0.4v2.1
		c-0.6,0.4-1.4,0.6-2.5,0.6C316.2,226.2,314.9,225.3,314.9,222.6"/>
	<path class="st0" d="M322.6,220.2L322.6,220.2c0-3.3,2.5-6.2,6.2-6.2c3.7,0,6.2,2.7,6.2,6.2l0,0c0,3.3-2.5,6.2-6.2,6.2
		C325.1,226.2,322.6,223.3,322.6,220.2 M332.3,220.2L332.3,220.2c0-2.1-1.4-3.7-3.7-3.7c-2.3,0-3.5,1.7-3.5,3.7l0,0
		c0,2.1,1.4,3.7,3.5,3.7C330.9,223.9,332.3,222.2,332.3,220.2z"/>
</g>
</svg>
