<?xml version="1.0" encoding="utf-8"?>
<!-- Generator: Adobe Illustrator 15.1.0, SVG Export Plug-In . SVG Version: 6.00 Build 0)  -->
<!DOCTYPE svg PUBLIC "-//W3C//DTD SVG 1.1//EN" "http://www.w3.org/Graphics/SVG/1.1/DTD/svg11.dtd">
<svg version="1.1" id="Camada_1" xmlns="http://www.w3.org/2000/svg" xmlns:xlink="http://www.w3.org/1999/xlink" x="0px" y="0px"
	 width="80px" height="80px" viewBox="0 0 80 80" enable-background="new 0 0 80 80" xml:space="preserve">
<g>
	<path fill="#FFFFFF" d="M65.677,5.337H14.322c-5.07,0-9.197,4.162-9.197,9.278v34.9c0,5.116,4.127,9.278,9.197,9.278h3.128
		l-0.128,11.851c0,2.217,1.797,4.02,4.005,4.02c1.163,0,2.233-0.495,3.015-1.396l10.961-14.492h30.375
		c5.07,0,9.197-4.162,9.197-9.276V14.615C74.875,9.499,70.748,5.337,65.677,5.337z M20.32,53.003h-5.978
		c-1.916,0-3.477-1.573-3.477-3.507V14.615c0-1.935,1.561-3.508,3.477-3.508h51.335c1.917,0,3.478,1.573,3.478,3.508v34.9
		c0,1.936-1.561,3.508-3.478,3.508H34.014c-0.846,0-1.637,0.361-2.17,0.99l-8.783,11.93l0.129-10.045
		C23.189,54.302,21.902,53.003,20.32,53.003z"/>
	<circle fill="#FFFFFF" cx="22.125" cy="32.758" r="4.195"/>
	<circle fill="#FFFFFF" cx="40.875" cy="32.758" r="4.195"/>
	<circle fill="#FFFFFF" cx="59.625" cy="32.758" r="4.195"/>
</g>
</svg>
