<?xml version="1.0" encoding="utf-8"?>
<!-- Generator: Adobe Illustrator 15.1.0, SVG Export Plug-In . SVG Version: 6.00 Build 0)  -->
<!DOCTYPE svg PUBLIC "-//W3C//DTD SVG 1.1//EN" "http://www.w3.org/Graphics/SVG/1.1/DTD/svg11.dtd">
<svg version="1.1" id="Camada_1" xmlns="http://www.w3.org/2000/svg" xmlns:xlink="http://www.w3.org/1999/xlink" x="0px" y="0px"
	 width="80px" height="80px" viewBox="0 0 80 80" enable-background="new 0 0 80 80" xml:space="preserve">
<path fill="#FFFFFF" d="M23.037,70.503c-5.395-3.009-9.727-7.234-12.995-12.685C6.773,52.371,5.14,46.434,5.14,39.999
	c0-9.649,3.397-17.871,10.194-24.667C22.128,8.536,30.352,5.139,40,5.139c3.631,0,7.159,0.571,10.583,1.712
	c0.104,0.104,0.234,0.156,0.39,0.156s0.285,0.052,0.39,0.155c1.971,0.623,3.786,1.401,5.446,2.335
	c5.499,3.008,9.882,7.237,13.149,12.684C73.227,27.628,74.86,33.568,74.86,40c0,9.65-3.396,17.874-10.193,24.667
	C57.872,71.464,49.649,74.861,40,74.861c-3.632,0-7.159-0.572-10.583-1.713c-0.104-0.104-0.234-0.156-0.39-0.156
	c-0.156,0-0.284-0.051-0.388-0.155c-2.491-0.83-4.307-1.556-5.448-2.179L23.037,70.503z M16.494,23.137
	c-3.634,5.11-5.45,10.731-5.45,16.863c0,5.454,1.391,10.448,4.172,14.991c2.783,4.543,6.503,8.063,11.157,10.561
	c1.818,0.908,2.896,1.42,3.236,1.533c0.114,0.113,0.256,0.172,0.427,0.172c0.17,0,0.313,0.056,0.426,0.17
	c1.021,0.34,2.669,0.736,4.939,1.191c1.022,0.227,2.555,0.342,4.6,0.342c6.131,0,11.752-1.817,16.862-5.451l-8.332-8.039
	l4.864-8.105l10.111,9.5c3.633-5.108,5.45-10.729,5.45-16.863c0-5.564-1.418-10.645-4.26-15.245
	c-2.836-4.6-6.586-8.091-11.24-10.476c-1.363-0.681-2.385-1.135-3.065-1.362c-0.112-0.114-0.256-0.17-0.426-0.17
	c-0.173,0-0.313-0.057-0.427-0.17c-1.021-0.341-2.67-0.739-4.938-1.193c-1.021-0.227-2.557-0.34-4.6-0.34
	c-6.245,0-11.924,1.816-17.034,5.451l8.668,8.375l-5.156,8.139L16.494,23.137z"/>
<path fill="#FFFFFF" d="M41.159,23.246c1.028,1.082,2.059,2.265,3.088,3.552c1.029,1.286,2.227,2.934,3.589,4.941
	c1.364,2.008,2.458,4.221,3.282,6.64c0.822,2.418,1.234,4.788,1.234,7.102c0,3.295-1.209,6.086-3.629,8.377
	c-2.419,2.291-5.326,3.436-8.725,3.436c-2.161,0-4.155-0.475-5.981-1.428c-1.828-0.951-3.281-2.252-4.362-3.898
	c-0.412-0.67-0.799-1.416-1.159-2.24c-0.564-1.389-0.849-2.805-0.849-4.245v-0.308c0.052-4.324,1.699-9.034,4.94-14.129
	c1.029-1.595,2.549-3.577,4.555-5.944c0.928-1.03,1.493-1.647,1.699-1.854l0.076-0.077c0.412-0.308,0.772-0.463,1.081-0.463
	c0.31,0,0.669,0.155,1.081,0.463L41.159,23.246z M40,52.969c2.11,0,3.926-0.76,5.443-2.277s2.276-3.332,2.276-5.441
	c0-1.082-0.205-2.11-0.617-3.088c-0.669,2.521-1.955,4.695-3.86,6.523c-1.902,1.826-4.117,2.998-6.639,3.514
	C37.735,52.711,38.867,52.969,40,52.969z"/>
</svg>
