<?xml version="1.0" encoding="utf-8"?>
<!-- Generator: Adobe Illustrator 15.1.0, SVG Export Plug-In . SVG Version: 6.00 Build 0)  -->
<!DOCTYPE svg PUBLIC "-//W3C//DTD SVG 1.1//EN" "http://www.w3.org/Graphics/SVG/1.1/DTD/svg11.dtd">
<svg version="1.1" id="Camada_1" xmlns="http://www.w3.org/2000/svg" xmlns:xlink="http://www.w3.org/1999/xlink" x="0px" y="0px"
	 width="80px" height="80px" viewBox="0 0 80 80" enable-background="new 0 0 80 80" xml:space="preserve">
<g>
	<path fill="#FFFFFF" d="M13.452,31.17c0-13.896,11.303-25.198,25.199-25.198c11.502,0,21.205,7.753,24.216,18.303
		c-0.554,0.596-0.937,1.355-1.045,2.208l-0.274,2.199l-0.467,2.492l-2.572-0.003c0-10.951-8.913-19.854-19.856-19.854
		c-10.951,0-19.858,8.903-19.858,19.854c0,7.425,4.107,13.901,10.16,17.307l-4.183,3.689C17.798,47.677,13.452,40.062,13.452,31.17
		L13.452,31.17z M66.466,27.118c-0.019-0.7-0.57-1.268-1.269-1.301c-0.667-0.04-1.308,0.47-1.394,1.167l-0.283,2.277l-0.502,2.661
		c-0.205,0.925-0.418,1.878-0.813,2.915l-0.597,1.751l-0.85,1.865c-0.307,0.766-0.763,1.537-1.25,2.351
		c-0.248,0.413-0.502,0.831-0.731,1.259c-0.248,0.331-0.487,0.666-0.728,1.006c-0.627,0.889-1.221,1.726-2.017,2.557
		c-0.692,0.862-1.521,1.635-2.396,2.454c-0.256,0.237-0.515,0.479-0.767,0.718c-0.283,0.219-0.565,0.436-0.841,0.653
		c-0.932,0.724-1.809,1.406-2.854,2.008c-0.802,0.558-1.725,1.012-2.608,1.449c-0.375,0.186-0.74,0.362-1.099,0.549
		c-0.453,0.162-0.896,0.342-1.328,0.512c-0.813,0.326-1.58,0.631-2.396,0.813l-1.765,0.487l-1.738,0.297
		c-0.884,0.188-1.659,0.235-2.413,0.279l-1.415,0.106l-0.2-0.002v-6.233c0-0.539-0.322-1.027-0.823-1.231
		c-0.501-0.21-1.072-0.097-1.454,0.286L16.972,61.122c-0.253,0.248-0.393,0.592-0.393,0.944c0,0.354,0.14,0.692,0.393,0.946
		L31.939,73.64c0.253,0.253,0.596,0.389,0.944,0.389c0.17,0,0.344-0.031,0.51-0.102c0.501-0.209,0.823-0.691,0.823-1.236v-6.512
		l2.461-0.449c1.139-0.234,2.552-0.525,3.907-1.031l1.581-0.531l2.621-1.105c1.106-0.438,2.151-1.051,3.162-1.639
		c0.433-0.258,0.872-0.51,1.315-0.753c0.049-0.031,0.097-0.058,0.141-0.093c0.349-0.252,0.705-0.496,1.058-0.744
		c1.08-0.75,2.196-1.524,3.149-2.422c1.176-0.941,2.208-2.024,3.2-3.08l0.724-0.756c0.03-0.035,0.062-0.071,0.088-0.105l0.653-0.828
		c0.894-1.119,1.816-2.277,2.508-3.466c0.779-1.116,1.369-2.279,1.939-3.402c0.19-0.392,0.387-0.775,0.588-1.15
		c0.025-0.053,0.053-0.104,0.07-0.16c0.178-0.475,0.369-0.94,0.557-1.397c0.414-1.016,0.84-2.063,1.084-3.092l0.613-2.191
		l0.354-1.925c0.276-1.272,0.356-2.43,0.43-3.459l0.128-1.741L66.466,27.118z"/>
	<path fill="#FFFFFF" d="M38.5,18.644c0,4.584,0,9.167,0,13.751c0.248-0.432,0.495-0.863,0.743-1.295
		c-2.497,1.208-4.994,2.416-7.49,3.624c-1.741,0.843-0.22,3.429,1.514,2.591c2.497-1.208,4.994-2.416,7.491-3.624
		c0.465-0.225,0.742-0.799,0.742-1.295c0-4.584,0-9.167,0-13.751C41.5,16.709,38.5,16.709,38.5,18.644L38.5,18.644z"/>
</g>
</svg>
