<?xml version="1.0" encoding="utf-8"?>
<!-- Generator: Adobe Illustrator 15.1.0, SVG Export Plug-In . SVG Version: 6.00 Build 0)  -->
<!DOCTYPE svg PUBLIC "-//W3C//DTD SVG 1.1//EN" "http://www.w3.org/Graphics/SVG/1.1/DTD/svg11.dtd">
<svg version="1.1" id="Camada_1" xmlns="http://www.w3.org/2000/svg" xmlns:xlink="http://www.w3.org/1999/xlink" x="0px" y="0px"
	 width="80px" height="80px" viewBox="0 0 80 80" enable-background="new 0 0 80 80" xml:space="preserve">
<path fill="#FFFFFF" d="M40.001,6.375L3.573,40h10.859v33.625h17.16V51.207h16.814v22.418h17.162V40h10.858L40.001,6.375z
	 M52.212,26.309L39.616,44.688c-0.408,0.527-0.924,0.851-1.553,0.974c-0.629,0.121-1.207-0.021-1.734-0.427
	c-0.326-0.243-1.178-1.104-2.557-2.588c-1.379-1.479-2.678-2.911-3.893-4.29l-1.887-2.068c-0.449-0.488-0.67-1.075-0.67-1.765
	s0.244-1.278,0.729-1.766c0.488-0.487,1.055-0.719,1.703-0.699c0.65,0.021,1.197,0.294,1.646,0.822l6.021,6.51l10.955-16.002
	c0.404-0.528,0.922-0.854,1.551-0.976c0.629-0.121,1.207,0.021,1.734,0.427c0.527,0.406,0.854,0.943,0.975,1.613
	C52.759,25.121,52.616,25.741,52.212,26.309z"/>
</svg>
