<?xml version="1.0" encoding="utf-8"?>
<!-- Generator: Adobe Illustrator 15.1.0, SVG Export Plug-In  -->
<!DOCTYPE svg PUBLIC "-//W3C//DTD SVG 1.1//EN" "http://www.w3.org/Graphics/SVG/1.1/DTD/svg11.dtd" [
	<!ENTITY ns_flows "http://ns.adobe.com/Flows/1.0/">
]>
<svg version="1.1"
	 xmlns="http://www.w3.org/2000/svg" xmlns:xlink="http://www.w3.org/1999/xlink" xmlns:a="http://ns.adobe.com/AdobeSVGViewerExtensions/3.0/"
	 x="0px" y="0px" width="240px" height="171px" viewBox="-0.827 -0.752 240 171" enable-background="new -0.827 -0.752 240 171"
	 xml:space="preserve">
<defs>
</defs>
<polygon fill="#FFFFFF" points="71.343,22.326 71.343,77.426 119.119,77.479 166.891,77.523 166.891,67.042 119.119,67.002 
	81.8,66.972 81.8,32.78 119.119,32.78 166.891,32.78 166.891,22.354 119.119,22.339 "/>
<path fill="#FFFFFF" d="M119.119,0H49.022v99.749h70.097h70.095V0H119.119z M59.481,10.523h59.638h59.517v34.143h-59.517H93.431
	v10.461h25.688h59.517v34.161h-59.517H59.481V10.523z"/>
<path fill="#FFFFFF" d="M138.765,113.773c-0.234-0.374-0.538-0.671-0.924-0.918c-0.205-0.128-0.44-0.248-0.683-0.348
	c-0.245-0.087-0.544-0.177-0.895-0.235c-0.361-0.065-0.794-0.115-1.327-0.167c-0.524-0.05-1.189-0.083-1.957-0.119
	c-0.789-0.043-1.72-0.079-2.825-0.102c-0.876-0.034-1.636-0.053-2.264-0.085c-0.631-0.021-1.158-0.043-1.58-0.069
	c-0.417-0.008-0.749-0.037-1-0.059c-0.237-0.037-0.419-0.07-0.527-0.097c-0.261-0.052-0.451-0.17-0.57-0.341
	c-0.124-0.194-0.185-0.428-0.185-0.732c0-0.251,0.014-0.454,0.071-0.612l0.335-0.394c0.167-0.092,0.417-0.171,0.752-0.211
	c0.346-0.051,0.802-0.084,1.369-0.098c0.572-0.017,1.287-0.027,2.145-0.027c0.724,0,1.333,0,1.828,0.011
	c0.504,0.017,0.932,0.017,1.259,0.03c0.33,0.005,0.594,0.024,0.797,0.046c0.208,0.029,0.364,0.052,0.485,0.087l0.303,0.132
	l0.291,0.251l0.142,0.414c0.032,0.177,0.056,0.415,0.071,0.722h4.918l0.019-0.48l0.005-0.287c0-0.672-0.04-1.233-0.146-1.706
	c-0.087-0.479-0.242-0.87-0.445-1.203c-0.209-0.328-0.48-0.597-0.813-0.808c-0.29-0.213-0.633-0.384-1.031-0.515
	c-0.401-0.126-0.9-0.244-1.485-0.319c-0.591-0.063-1.316-0.132-2.185-0.165c-0.857-0.029-1.896-0.046-3.107-0.046
	c-1.332,0-2.493,0.008-3.461,0.03c-0.971,0.023-1.778,0.056-2.414,0.117c-0.633,0.026-1.107,0.087-1.433,0.155
	c-0.768,0.168-1.388,0.446-1.859,0.842c-0.475,0.402-0.823,0.952-1.031,1.654c-0.22,0.691-0.327,1.568-0.325,2.619
	c-0.002,0.931,0.077,1.692,0.254,2.309c0.16,0.609,0.442,1.108,0.844,1.476c0.398,0.359,0.944,0.635,1.631,0.794
	c0.678,0.181,1.543,0.277,2.569,0.3l1.358,0.057l2.706,0.119l4.028,0.159c0.538,0,0.95,0.04,1.243,0.115
	c0.282,0.073,0.49,0.201,0.604,0.388c0.113,0.175,0.161,0.437,0.156,0.775c0.005,0.242-0.006,0.444-0.024,0.621l-0.179,0.417
	c-0.093,0.109-0.251,0.188-0.476,0.26c-0.229,0.056-0.549,0.097-0.938,0.124c-0.401,0.023-0.924,0.037-1.549,0.046h-2.306h-1.817
	c-0.496,0-0.902-0.013-1.225-0.033c-0.324-0.009-0.58-0.022-0.783-0.051c-0.197-0.03-0.358-0.073-0.475-0.109l-0.324-0.153
	l-0.307-0.289c-0.071-0.118-0.118-0.29-0.15-0.484c-0.034-0.203-0.042-0.476-0.042-0.802h-4.946v0.812
	c-0.003,0.757,0.053,1.388,0.14,1.9c0.101,0.51,0.262,0.92,0.478,1.26c0.227,0.327,0.536,0.616,0.91,0.846
	c0.293,0.193,0.654,0.351,1.084,0.477c0.433,0.118,0.963,0.23,1.617,0.299c0.652,0.079,1.438,0.131,2.369,0.164
	c0.939,0.026,2.053,0.03,3.345,0.03c1.243,0.013,2.332,0,3.234-0.014c0.916-0.017,1.686-0.047,2.321-0.079
	c0.634-0.06,1.158-0.102,1.567-0.161c0.409-0.072,0.741-0.155,0.986-0.23c0.578-0.221,1.042-0.535,1.398-0.948
	c0.364-0.408,0.62-0.952,0.789-1.608c0.169-0.675,0.256-1.48,0.25-2.446c0.006-0.778-0.053-1.433-0.158-1.952
	C139.168,114.569,138.991,114.127,138.765,113.773"/>
<polygon fill="#FFFFFF" points="184.017,105.58 184.146,118.057 183.613,118.057 174.853,105.58 165.92,105.58 165.92,122.328 
	171.112,122.328 170.982,109.822 171.534,109.822 180.351,122.328 189.214,122.328 189.214,105.58 "/>
<path fill="#FFFFFF" d="M70.416,116.65c-0.002-0.203-0.013-0.467-0.021-0.782h-5.121c0,0.421-0.013,0.76-0.047,1.052
	c-0.023,0.286-0.09,0.523-0.2,0.711c-0.111,0.174-0.274,0.324-0.513,0.434c-0.239,0.098-0.564,0.173-0.983,0.214
	c-0.411,0.052-0.944,0.074-1.594,0.094c-0.654,0.017-1.435,0.021-2.366,0.021c-1.065,0-1.944-0.013-2.625-0.054
	c-0.69-0.029-1.221-0.106-1.611-0.252c-0.388-0.132-0.668-0.357-0.847-0.665c-0.164-0.317-0.271-0.729-0.316-1.283
	c-0.037-0.545-0.056-1.242-0.048-2.099c0-0.841,0.029-1.524,0.076-2.062c0.045-0.535,0.135-0.948,0.248-1.252
	c0.119-0.317,0.282-0.542,0.48-0.712c0.129-0.095,0.277-0.178,0.485-0.236c0.2-0.079,0.472-0.13,0.81-0.158
	c0.349-0.039,0.792-0.062,1.332-0.079c0.538-0.019,1.203-0.026,1.992-0.026c1.068,0,1.957,0.018,2.662,0.048
	c0.707,0.039,1.253,0.086,1.641,0.17c0.393,0.063,0.648,0.157,0.772,0.257l0.225,0.292c0.053,0.092,0.092,0.247,0.118,0.454
	c0.021,0.199,0.04,0.476,0.059,0.841h5.094v-0.832c0.006-0.891-0.058-1.632-0.188-2.237c-0.118-0.602-0.321-1.087-0.604-1.475
	c-0.285-0.378-0.668-0.683-1.14-0.926c-0.282-0.158-0.609-0.272-0.979-0.379c-0.375-0.103-0.834-0.189-1.369-0.233
	c-0.541-0.058-1.206-0.114-1.989-0.132c-0.786-0.02-1.736-0.038-2.844-0.038c-1.459,0-2.733,0.019-3.833,0.038
	c-1.101,0.034-2.05,0.083-2.839,0.152c-0.799,0.083-1.482,0.181-2.028,0.298c-0.552,0.136-1.005,0.294-1.361,0.493
	c-0.361,0.203-0.654,0.454-0.884,0.727c-0.227,0.28-0.414,0.604-0.56,0.983c-0.09,0.216-0.169,0.491-0.231,0.816
	c-0.063,0.299-0.105,0.69-0.148,1.149c-0.028,0.467-0.061,1.007-0.073,1.688c-0.014,0.661-0.021,1.466-0.021,2.393
	c0,1.061,0.016,1.958,0.034,2.651c0.023,0.708,0.053,1.241,0.09,1.616c0.068,0.572,0.169,1.058,0.312,1.476
	c0.145,0.397,0.337,0.757,0.588,1.048c0.24,0.288,0.541,0.539,0.91,0.739c0.267,0.164,0.578,0.289,0.932,0.404
	c0.354,0.105,0.788,0.212,1.298,0.282c0.501,0.075,1.113,0.132,1.822,0.178c0.713,0.042,1.56,0.075,2.543,0.088
	c0.979,0.025,2.121,0.025,3.425,0.025c0.931,0,1.746,0,2.456-0.025c0.715-0.013,1.34-0.063,1.878-0.096
	c0.549-0.052,1.028-0.112,1.44-0.18c0.417-0.074,0.794-0.167,1.124-0.272c0.62-0.202,1.118-0.468,1.493-0.838
	c0.38-0.375,0.654-0.854,0.822-1.45c0.172-0.607,0.256-1.356,0.254-2.259l-0.014-0.307C70.433,117.025,70.427,116.853,70.416,116.65
	"/>
<path fill="#FFFFFF" d="M94.578,108.771c-0.124-0.562-0.296-1.028-0.512-1.39c-0.203-0.356-0.478-0.661-0.8-0.903
	c-0.242-0.194-0.532-0.349-0.842-0.493c-0.306-0.131-0.69-0.25-1.152-0.34c-0.456-0.088-1.037-0.15-1.72-0.196
	c-0.688-0.053-1.535-0.079-2.535-0.092c-1.003-0.025-2.192-0.033-3.588-0.033c-1.398,0-2.591,0.008-3.593,0.033
	c-1,0.013-1.844,0.039-2.53,0.092c-0.688,0.046-1.266,0.108-1.72,0.196c-0.456,0.09-0.847,0.209-1.155,0.34
	c-0.316,0.136-0.594,0.299-0.847,0.493c-0.314,0.242-0.589,0.547-0.805,0.903c-0.209,0.366-0.375,0.828-0.504,1.39
	c-0.132,0.563-0.214,1.255-0.267,2.093c-0.058,0.813-0.079,1.803-0.079,2.966c0,1.234,0.021,2.272,0.074,3.118
	c0.047,0.856,0.137,1.583,0.266,2.151c0.119,0.571,0.288,1.038,0.51,1.409c0.211,0.369,0.479,0.671,0.805,0.907
	c0.253,0.203,0.53,0.365,0.847,0.513c0.309,0.131,0.699,0.229,1.155,0.315c0.464,0.094,1.034,0.166,1.728,0.217
	c0.694,0.039,1.538,0.071,2.549,0.084c0.994,0.026,2.185,0.026,3.566,0.026h0.045c1.38,0,2.569,0,3.562-0.026
	c0.991-0.013,1.828-0.045,2.517-0.084c0.683-0.051,1.258-0.123,1.715-0.217c0.459-0.087,0.841-0.185,1.155-0.315
	c0.312-0.147,0.602-0.31,0.844-0.513c0.322-0.236,0.597-0.529,0.8-0.899c0.216-0.361,0.388-0.823,0.512-1.395
	c0.126-0.568,0.214-1.276,0.271-2.122c0.058-0.831,0.074-1.873,0.074-3.064c0-1.193-0.017-2.212-0.074-3.049
	C94.792,110.048,94.704,109.348,94.578,108.771 M89.767,116.047c-0.048,0.427-0.127,0.762-0.238,1.002
	c-0.105,0.243-0.258,0.435-0.453,0.58l-0.446,0.255c-0.174,0.071-0.382,0.128-0.636,0.181c-0.258,0.036-0.577,0.067-0.974,0.095
	c-0.39,0.022-0.875,0.052-1.456,0.065c-0.577,0.01-1.271,0.014-2.089,0.014H83.43c-0.815,0-1.522-0.004-2.1-0.014
	c-0.597-0.01-1.085-0.032-1.485-0.052c-0.401-0.021-0.729-0.063-0.984-0.102c-0.253-0.05-0.47-0.099-0.636-0.176l-0.445-0.267
	l-0.372-0.416c-0.095-0.158-0.18-0.36-0.235-0.602c-0.05-0.247-0.089-0.541-0.11-0.902c-0.029-0.356-0.042-0.8-0.042-1.327
	c0-0.689,0.019-1.288,0.045-1.765c0.023-0.471,0.065-0.86,0.121-1.163c0.061-0.305,0.135-0.542,0.242-0.729
	c0.093-0.196,0.203-0.361,0.333-0.492c0.129-0.119,0.313-0.24,0.549-0.296c0.24-0.083,0.564-0.141,0.976-0.175
	c0.425-0.045,0.963-0.071,1.644-0.075c0.665,0,1.507-0.007,2.501-0.007c0.926,0,1.701,0.007,2.34,0.007
	c0.633,0.004,1.145,0.013,1.549,0.057c0.408,0.026,0.726,0.062,0.963,0.121c0.24,0.056,0.43,0.128,0.567,0.223l0.382,0.34
	c0.108,0.128,0.206,0.307,0.282,0.498c0.079,0.221,0.146,0.463,0.188,0.769c0.048,0.299,0.082,0.687,0.103,1.13
	c0.021,0.444,0.026,0.976,0.026,1.597C89.837,115.085,89.809,115.637,89.767,116.047z"/>
<path fill="#FFFFFF" d="M117.431,107.834c-0.129-0.374-0.295-0.69-0.506-0.93c-0.22-0.26-0.491-0.483-0.805-0.674l-0.48-0.282
	l-0.493-0.181c-0.185-0.042-0.411-0.083-0.686-0.115c-0.282-0.021-0.649-0.049-1.09-0.049c-0.448-0.017-1-0.025-1.665-0.025h-2.439
	h-1.91H96.938v16.75h5.092v-4.245h5.326h1.886c0.518,0,0.947,0.004,1.28,0.004c0.335,0.014,0.604,0.046,0.799,0.064
	c0.192,0.033,0.354,0.081,0.465,0.148l0.295,0.23c0.129,0.139,0.237,0.306,0.306,0.531c0.074,0.214,0.13,0.511,0.148,0.878
	c0.034,0.378,0.047,0.885,0.047,1.505v0.884h5.021l-0.006-1.557c0.035-0.961,0.019-1.761-0.047-2.362
	c-0.066-0.619-0.203-1.085-0.406-1.433c-0.217-0.357-0.512-0.615-0.913-0.789c-0.403-0.167-0.921-0.278-1.569-0.339
	c0.335-0.054,0.62-0.102,0.857-0.17c0.227-0.063,0.438-0.139,0.606-0.223l0.504-0.313c0.219-0.167,0.403-0.363,0.56-0.591
	c0.147-0.207,0.259-0.479,0.351-0.784c0.087-0.309,0.15-0.698,0.185-1.142c0.037-0.445,0.051-0.982,0.051-1.604
	c0-0.723-0.021-1.335-0.071-1.864C117.645,108.635,117.555,108.189,117.431,107.834 M112.554,112.982
	c-0.082,0.285-0.228,0.485-0.425,0.597l-0.195,0.132l-0.245,0.083c-0.105,0.009-0.248,0.019-0.446,0.035
	c-0.188,0.014-0.446,0.022-0.772,0.022c-0.33,0.018-0.742,0.026-1.256,0.037h-1.857h-5.326v-4.119h5.326h1.857
	c0.572,0.007,1.023,0.012,1.354,0.012c0.332,0.015,0.582,0.015,0.754,0.033l0.38,0.042l0.251,0.086l0.425,0.319
	c0.107,0.156,0.182,0.352,0.231,0.592c0.051,0.245,0.074,0.552,0.074,0.926C112.688,112.293,112.641,112.699,112.554,112.982z"/>
<path fill="#FFFFFF" d="M152.408,105.578h-3.946l-8.866,16.75h5.832l1.425-2.839h5.556h5.524l1.427,2.839h5.801l-8.761-16.75
	H152.408z M152.408,115.813h-3.746l3.24-6.348h0.506h0.501l3.237,6.348H152.408z"/>
<path fill="#FFFFFF" d="M5.256,155.243h1.943l5.256,12.027h-2.216l-1.212-2.88H3.382l-1.232,2.88H0L5.256,155.243z M8.258,162.529
	l-2.063-4.782l-2.049,4.782H8.258z"/>
<polygon fill="#FFFFFF" points="18.529,158.263 20.747,158.263 23.168,164.882 25.608,158.263 27.775,158.263 24.088,167.34 
	22.229,167.34 "/>
<path fill="#FFFFFF" d="M29.563,154.92h2.222v1.962h-2.222V154.92z M29.647,158.263h2.065v9.008h-2.065V158.263z"/>
<path fill="#FFFFFF" d="M33.946,162.788v-0.038c0-2.983,2.032-4.675,4.181-4.675c1.485,0,2.425,0.733,3.073,1.588v-4.846h2.065
	v12.453H41.2v-1.5c-0.669,0.939-1.606,1.69-3.073,1.69C36.012,167.461,33.946,165.771,33.946,162.788 M41.232,162.788v-0.038
	c0-1.737-1.229-2.884-2.61-2.884c-1.414,0-2.594,1.093-2.594,2.884v0.038c0,1.737,1.195,2.878,2.594,2.878
	C40.004,165.666,41.232,164.508,41.232,162.788z"/>
<path fill="#FFFFFF" d="M45.258,164.68v-0.037c0-1.942,1.513-2.899,3.716-2.899c1.013,0,1.724,0.156,2.424,0.376v-0.22
	c0-1.281-0.782-1.964-2.238-1.964c-1.001,0-1.752,0.221-2.574,0.562l-0.543-1.618c0.988-0.449,1.961-0.733,3.395-0.733
	c1.345,0,2.353,0.355,2.987,1.004c0.662,0.651,0.972,1.604,0.972,2.781v5.345h-2.015v-1.129c-0.612,0.734-1.552,1.316-2.933,1.316
	C46.76,167.463,45.258,166.488,45.258,164.68 M51.434,164.029v-0.613c-0.528-0.206-1.229-0.358-2.048-0.358
	c-1.332,0-2.116,0.562-2.116,1.499v0.038c0,0.867,0.769,1.361,1.755,1.361C50.392,165.956,51.434,165.177,51.434,164.029z"/>
<path fill="#FFFFFF" d="M61.41,164.781v-4.743h-1.145v-1.775h1.145v-2.474h2.065v2.474h2.422v1.775h-2.422v4.417
	c0,0.804,0.41,1.127,1.108,1.127c0.459,0,0.87-0.102,1.28-0.308v1.692c-0.515,0.287-1.075,0.456-1.861,0.456
	C62.485,167.423,61.41,166.761,61.41,164.781"/>
<path fill="#FFFFFF" d="M67.996,158.263h2.063v2.031c0.563-1.348,1.604-2.269,3.191-2.201v2.186h-0.122
	c-1.804,0-3.069,1.178-3.069,3.563v3.429h-2.063V158.263z"/>
<path fill="#FFFFFF" d="M74.019,164.68v-0.037c0-1.942,1.516-2.899,3.716-2.899c1.01,0,1.724,0.156,2.427,0.376v-0.22
	c0-1.281-0.789-1.964-2.238-1.964c-1.004,0-1.754,0.221-2.577,0.562l-0.545-1.618c0.99-0.449,1.963-0.733,3.399-0.733
	c1.343,0,2.349,0.355,2.984,1.004c0.662,0.651,0.969,1.604,0.969,2.781v5.345h-2.008v-1.129c-0.619,0.734-1.558,1.316-2.938,1.316
	C75.519,167.463,74.019,166.488,74.019,164.68 M80.191,164.029v-0.613c-0.528-0.206-1.226-0.358-2.047-0.358
	c-1.332,0-2.114,0.562-2.114,1.499v0.038c0,0.867,0.768,1.361,1.76,1.361C79.15,165.956,80.191,165.177,80.191,164.029z"/>
<path fill="#FFFFFF" d="M84.969,164.781v-4.743h-1.144v-1.775h1.144v-2.474h2.063v2.474h2.421v1.775h-2.421v4.417
	c0,0.804,0.41,1.127,1.107,1.127c0.463,0,0.871-0.102,1.283-0.308v1.692c-0.514,0.287-1.074,0.456-1.862,0.456
	C86.039,167.423,84.969,166.761,84.969,164.781"/>
<path fill="#FFFFFF" d="M90.956,164.68v-0.037c0-1.942,1.518-2.899,3.718-2.899c1.007,0,1.722,0.156,2.422,0.376v-0.22
	c0-1.281-0.782-1.964-2.235-1.964c-1.004,0-1.757,0.221-2.575,0.562l-0.547-1.618c0.99-0.449,1.965-0.733,3.398-0.733
	c1.346,0,2.351,0.355,2.985,1.004c0.665,0.651,0.975,1.604,0.975,2.781v5.345h-2.012v-1.129c-0.621,0.734-1.56,1.316-2.938,1.316
	C92.458,167.463,90.956,166.488,90.956,164.68 M97.132,164.029v-0.613c-0.53-0.206-1.229-0.358-2.05-0.358
	c-1.327,0-2.116,0.562-2.116,1.499v0.038c0,0.867,0.771,1.361,1.76,1.361C96.09,165.956,97.132,165.177,97.132,164.029z"/>
<path fill="#FFFFFF" d="M101.104,162.788v-0.038c0-2.983,2.031-4.675,4.184-4.675c1.482,0,2.417,0.733,3.068,1.588v-4.846h2.065
	v12.453h-2.065v-1.5c-0.665,0.939-1.604,1.69-3.068,1.69C103.17,167.461,101.104,165.771,101.104,162.788 M108.388,162.788v-0.038
	c0-1.737-1.226-2.884-2.606-2.884c-1.42,0-2.597,1.093-2.597,2.884v0.038c0,1.737,1.197,2.878,2.597,2.878
	C107.162,165.666,108.388,164.508,108.388,162.788z"/>
<path fill="#FFFFFF" d="M112.419,164.68v-0.037c0-1.942,1.513-2.899,3.716-2.899c1.008,0,1.724,0.156,2.421,0.376v-0.22
	c0-1.281-0.781-1.964-2.232-1.964c-1.009,0-1.757,0.221-2.577,0.562l-0.544-1.618c0.984-0.449,1.959-0.733,3.393-0.733
	c1.348,0,2.355,0.355,2.985,1.004c0.664,0.651,0.972,1.604,0.972,2.781v5.345h-2.012v-1.129c-0.616,0.734-1.555,1.316-2.934,1.316
	C113.919,167.463,112.419,166.488,112.419,164.68 M118.592,164.029v-0.613c-0.527-0.206-1.23-0.358-2.047-0.358
	c-1.332,0-2.12,0.562-2.12,1.499v0.038c0,0.867,0.771,1.361,1.759,1.361C117.553,165.956,118.592,165.177,118.592,164.029z"/>
<path fill="#FFFFFF" d="M127.649,162.818v-0.03c0-2.562,1.975-4.713,4.689-4.713c1.69,0,2.747,0.631,3.601,1.554l-1.297,1.384
	c-0.632-0.665-1.297-1.13-2.32-1.13c-1.502,0-2.61,1.298-2.61,2.867v0.038c0,1.603,1.108,2.878,2.695,2.878
	c0.972,0,1.69-0.44,2.334-1.109l1.251,1.23c-0.887,0.992-1.93,1.688-3.686,1.688C129.624,167.475,127.649,165.376,127.649,162.818"
	/>
<path fill="#FFFFFF" d="M137.13,162.818v-0.03c0-2.578,2.049-4.713,4.811-4.713c2.767,0,4.796,2.099,4.796,4.675v0.038
	c0,2.555-2.047,4.687-4.828,4.687C139.16,167.475,137.13,165.376,137.13,162.818 M144.671,162.818v-0.03
	c0-1.589-1.141-2.905-2.763-2.905c-1.653,0-2.715,1.298-2.715,2.867v0.038c0,1.567,1.146,2.878,2.747,2.878
	C143.614,165.666,144.671,164.371,144.671,162.818z"/>
<path fill="#FFFFFF" d="M148.837,158.263h2.063v1.365c0.583-0.8,1.358-1.553,2.746-1.553c1.295,0,2.213,0.631,2.693,1.588
	c0.719-0.957,1.674-1.588,3.042-1.588c1.96,0,3.149,1.245,3.149,3.449v5.746h-2.061v-5.118c0-1.43-0.664-2.2-1.828-2.2
	c-1.126,0-1.923,0.783-1.923,2.234v5.084h-2.068v-5.136c0-1.399-0.682-2.183-1.825-2.183c-1.141,0-1.926,0.854-1.926,2.234v5.084
	h-2.063V158.263z"/>
<path fill="#FFFFFF" d="M170.157,158.263h2.063v2.031c0.563-1.348,1.606-2.269,3.193-2.201v2.186h-0.12
	c-1.81,0-3.073,1.178-3.073,3.563v3.429h-2.063V158.263z"/>
<path fill="#FFFFFF" d="M176.403,162.803v-0.037c0-2.573,1.823-4.69,4.398-4.69c2.867,0,4.316,2.253,4.316,4.849
	c0,0.187-0.017,0.372-0.033,0.576h-6.621c0.222,1.471,1.261,2.287,2.594,2.287c1.007,0,1.728-0.378,2.438-1.074l1.212,1.074
	c-0.857,1.025-2.031,1.688-3.683,1.688C178.414,167.475,176.403,165.582,176.403,162.803 M183.071,162.135
	c-0.136-1.329-0.922-2.368-2.287-2.368c-1.261,0-2.148,0.972-2.336,2.368H183.071z"/>
<path fill="#FFFFFF" d="M186.465,166.095l0.92-1.399c0.99,0.732,2.029,1.106,2.954,1.106c0.884,0,1.396-0.374,1.396-0.971V164.8
	c0-0.699-0.955-0.942-2.014-1.268c-1.33-0.372-2.815-0.92-2.815-2.644v-0.03c0-1.709,1.417-2.746,3.21-2.746
	c1.127,0,2.355,0.389,3.311,1.021l-0.82,1.467c-0.871-0.527-1.79-0.852-2.539-0.852c-0.803,0-1.268,0.374-1.268,0.886v0.035
	c0,0.664,0.975,0.938,2.032,1.28c1.313,0.409,2.8,1.007,2.8,2.628v0.034c0,1.893-1.469,2.833-3.349,2.833
	C189.007,167.444,187.589,166.984,186.465,166.095"/>
<path fill="#FFFFFF" d="M195.743,158.263h2.063v1.504c0.665-0.938,1.606-1.691,3.073-1.691c2.118,0,4.179,1.673,4.179,4.675v0.038
	c0,2.982-2.047,4.673-4.179,4.673c-1.499,0-2.442-0.751-3.073-1.586V170h-2.063V158.263z M202.962,162.788v-0.038
	c0-1.737-1.184-2.884-2.579-2.884c-1.4,0-2.628,1.164-2.628,2.884v0.038c0,1.72,1.228,2.878,2.628,2.878
	C201.799,165.666,202.962,164.557,202.962,162.788z"/>
<path fill="#FFFFFF" d="M206.693,162.803v-0.037c0-2.573,1.825-4.69,4.4-4.69c2.867,0,4.321,2.253,4.321,4.849
	c0,0.187-0.021,0.372-0.036,0.576h-6.62c0.226,1.471,1.268,2.287,2.592,2.287c1.009,0,1.725-0.378,2.444-1.074l1.208,1.074
	c-0.85,1.025-2.029,1.688-3.683,1.688C208.707,167.475,206.693,165.582,206.693,162.803 M213.365,162.135
	c-0.138-1.329-0.922-2.368-2.287-2.368c-1.263,0-2.151,0.972-2.338,2.368H213.365z"/>
<path fill="#FFFFFF" d="M217.526,154.92h2.217v1.962h-2.217V154.92z M217.612,158.263h2.068v9.008h-2.068V158.263z"/>
<path fill="#FFFFFF" d="M222.8,164.781v-4.743h-1.144v-1.775h1.144v-2.474h2.063v2.474h2.422v1.775h-2.422v4.417
	c0,0.804,0.41,1.127,1.108,1.127c0.463,0,0.873-0.102,1.283-0.308v1.692c-0.515,0.287-1.077,0.456-1.861,0.456
	C223.875,167.423,222.8,166.761,222.8,164.781"/>
<path fill="#FFFFFF" d="M228.634,162.818v-0.03c0-2.578,2.046-4.713,4.809-4.713c2.768,0,4.795,2.099,4.795,4.675v0.038
	c0,2.555-2.047,4.687-4.829,4.687C230.661,167.475,228.634,165.376,228.634,162.818 M236.172,162.818v-0.03
	c0-1.589-1.141-2.905-2.764-2.905c-1.656,0-2.712,1.298-2.712,2.867v0.038c0,1.567,1.142,2.878,2.746,2.878
	C235.112,165.666,236.172,164.371,236.172,162.818z"/>
</svg>
