<?xml version="1.0" encoding="utf-8"?>
<!-- Generator: Adobe Illustrator 15.1.0, SVG Export Plug-In . SVG Version: 6.00 Build 0)  -->
<!DOCTYPE svg PUBLIC "-//W3C//DTD SVG 1.1//EN" "http://www.w3.org/Graphics/SVG/1.1/DTD/svg11.dtd">
<svg version="1.1" id="Camada_1" xmlns="http://www.w3.org/2000/svg" xmlns:xlink="http://www.w3.org/1999/xlink" x="0px" y="0px"
	 width="80px" height="80px" viewBox="0 0 80 80" enable-background="new 0 0 80 80" xml:space="preserve">
<g>
	<path fill="#FFFFFF" d="M74.626,50.563l-0.998-1.773c-0.599-1.064-1.579-1.826-2.761-2.141c-1.161-0.313-2.438-0.133-3.467,0.482
		l-0.922,0.553l-0.547-0.801c-0.845-1.229-2.23-1.961-3.707-1.961c-0.869,0-1.718,0.252-2.451,0.729l-1.722,1.115L56.82,45.43
		l-0.105-0.094c-1.465-1.103-3.734-1.154-5.243-0.117L42.887,51.1l-4.6-0.061l-8.965-5.17c-1.953-1.129-4.193-1.783-6.513-1.894
		l-1.894,0.043c-1.681,0.151-3.303,0.595-4.823,1.315L5.925,50.15c-0.478,0.227-0.837,0.625-1.015,1.123
		c-0.176,0.496-0.148,1.031,0.077,1.508c0.446,0.93,1.695,1.377,2.625,0.936L17.779,48.9c3.007-1.422,6.694-1.271,9.571,0.389
		l9.414,5.426c0.281,0.162,0.61,0.252,0.958,0.264l5.747,0.076h5.75c1.318,0,2.391,1.07,2.391,2.389s-1.071,2.389-2.391,2.389
		H38.903c-0.599,0-1.205-0.143-1.753-0.41l-5.871-2.906c-0.942-0.467-2.168-0.063-2.646,0.896c-0.478,0.977-0.075,2.16,0.896,2.641
		l5.872,2.904c1.079,0.533,2.29,0.816,3.502,0.816h10.315c3.494,0,6.337-2.84,6.337-6.33c0-3.291-2.524-6.004-5.741-6.307
		l3.887-2.658c0.228-0.154,0.615-0.08,0.768,0.139l0.944,1.352c0.835,1.197,2.592,1.533,3.807,0.744l2.697-1.748
		c0.233-0.152,0.603-0.074,0.76,0.154l1.14,1.664c0.813,1.186,2.541,1.57,3.779,0.83l1.826-1.092
		c0.123-0.074,0.293-0.096,0.426-0.063c0.146,0.039,0.268,0.133,0.342,0.268l0.998,1.771c0.146,0.256,0.063,0.582-0.185,0.74
		L43.548,70.705c-0.846,0.535-1.957,0.617-2.868,0.213l-15.104-6.676c-2.744-1.213-6.144-0.967-8.687,0.625l-4.283,2.682
		c-0.92,0.576-1.201,1.793-0.624,2.717c0.559,0.895,1.83,1.188,2.718,0.623l4.283-2.678c1.459-0.916,3.419-1.057,4.996-0.359
		l15.105,6.674c0.9,0.398,1.852,0.6,2.828,0.6c1.329,0,2.627-0.379,3.752-1.096l27.455-17.465
		C75.137,55.281,75.798,52.645,74.626,50.563z"/>
	<polygon fill="#FFFFFF" points="26.21,11.318 26.21,27.223 40,27.237 53.79,27.25 53.79,24.225 40,24.213 29.229,24.205 
		29.229,14.335 40,14.335 53.79,14.335 53.79,11.327 40,11.323 	"/>
	<path fill="#FFFFFF" d="M40,4.875H19.768v28.791H40h20.232V4.875H40z M22.788,7.913H40h17.18v9.854H40h-7.414v3.021H40h17.18v9.859
		H40H22.788V7.913z"/>
	<path fill="#FFFFFF" d="M42.768,37.862c-0.066-0.108-0.154-0.194-0.268-0.265c-0.06-0.036-0.127-0.071-0.195-0.101
		c-0.071-0.025-0.157-0.051-0.26-0.066c-0.104-0.02-0.229-0.035-0.383-0.049c-0.151-0.015-0.344-0.024-0.564-0.035
		c-0.227-0.012-0.496-0.022-0.814-0.029c-0.254-0.01-0.474-0.015-0.654-0.025c-0.182-0.006-0.334-0.012-0.455-0.02
		c-0.121-0.002-0.217-0.011-0.289-0.018c-0.069-0.01-0.121-0.02-0.152-0.028c-0.076-0.014-0.131-0.048-0.165-0.099
		c-0.035-0.055-0.054-0.123-0.054-0.211c0-0.072,0.004-0.131,0.021-0.177l0.096-0.113c0.049-0.027,0.121-0.049,0.218-0.061
		c0.1-0.015,0.231-0.024,0.396-0.028c0.164-0.005,0.371-0.009,0.618-0.009c0.209,0,0.385,0,0.528,0.004
		c0.146,0.005,0.269,0.005,0.362,0.009c0.096,0,0.172,0.006,0.23,0.013c0.061,0.008,0.104,0.015,0.141,0.024l0.086,0.038
		l0.084,0.073l0.041,0.12c0.01,0.05,0.017,0.12,0.021,0.207h1.42l0.006-0.139v-0.083c0-0.194-0.011-0.356-0.041-0.492
		c-0.024-0.138-0.07-0.25-0.129-0.348c-0.06-0.094-0.139-0.172-0.234-0.233c-0.084-0.061-0.182-0.11-0.297-0.149
		c-0.115-0.035-0.26-0.07-0.43-0.091c-0.171-0.019-0.381-0.038-0.631-0.048c-0.247-0.008-0.547-0.013-0.897-0.013
		c-0.383,0-0.719,0.002-0.998,0.009c-0.279,0.006-0.514,0.015-0.697,0.033c-0.182,0.007-0.319,0.025-0.412,0.046
		c-0.223,0.048-0.401,0.128-0.537,0.243c-0.138,0.116-0.238,0.275-0.299,0.477c-0.063,0.2-0.094,0.453-0.092,0.755
		c-0.002,0.269,0.021,0.489,0.072,0.667c0.047,0.176,0.127,0.319,0.244,0.427c0.113,0.103,0.271,0.183,0.469,0.229
		c0.196,0.053,0.447,0.08,0.742,0.086l0.393,0.017l0.781,0.034l1.163,0.046c0.155,0,0.273,0.011,0.358,0.033
		c0.082,0.021,0.142,0.058,0.174,0.111c0.033,0.051,0.046,0.126,0.046,0.224c0,0.07-0.002,0.128-0.008,0.179l-0.052,0.12
		c-0.027,0.031-0.072,0.054-0.138,0.075c-0.065,0.017-0.157,0.028-0.271,0.036c-0.115,0.007-0.266,0.011-0.445,0.014h-0.667h-0.524
		c-0.143,0-0.26-0.004-0.354-0.011c-0.094-0.002-0.168-0.006-0.226-0.014c-0.058-0.008-0.104-0.021-0.138-0.031l-0.094-0.044
		l-0.088-0.083c-0.021-0.034-0.035-0.083-0.043-0.14c-0.01-0.059-0.012-0.138-0.012-0.231h-1.429v0.233
		c-0.001,0.219,0.015,0.401,0.04,0.549c0.029,0.147,0.076,0.266,0.138,0.364c0.065,0.094,0.155,0.178,0.263,0.244
		c0.084,0.056,0.189,0.1,0.313,0.138c0.125,0.033,0.278,0.066,0.467,0.086c0.188,0.022,0.415,0.036,0.684,0.046
		c0.271,0.008,0.592,0.009,0.966,0.009c0.358,0.004,0.672,0,0.933-0.004c0.265-0.005,0.485-0.014,0.671-0.023
		c0.184-0.017,0.334-0.028,0.451-0.046c0.119-0.021,0.215-0.044,0.285-0.066c0.166-0.064,0.301-0.155,0.404-0.273
		c0.104-0.118,0.178-0.275,0.228-0.465c0.049-0.194,0.073-0.427,0.071-0.706c0.002-0.226-0.016-0.414-0.045-0.563
		C42.884,38.092,42.834,37.963,42.768,37.862"/>
	<polygon fill="#FFFFFF" points="41.861,35.497 41.898,39.099 41.744,39.099 39.217,35.497 36.639,35.497 36.639,40.332 
		38.135,40.332 38.1,36.723 38.258,36.723 40.803,40.332 43.361,40.332 43.361,35.497 	"/>
	<path fill="#FFFFFF" d="M43.083,37.132c-0.002,0.058-0.004,0.135-0.008,0.226h-1.479c0-0.122-0.003-0.22-0.013-0.304
		c-0.008-0.083-0.025-0.151-0.059-0.205c-0.031-0.051-0.08-0.094-0.147-0.125c-0.068-0.028-0.163-0.05-0.283-0.061
		c-0.118-0.015-0.272-0.022-0.46-0.027c-0.188-0.004-0.414-0.006-0.684-0.006c-0.308,0-0.562,0.004-0.758,0.015
		c-0.199,0.009-0.354,0.031-0.465,0.073c-0.113,0.038-0.193,0.104-0.245,0.191c-0.047,0.092-0.077,0.212-0.092,0.371
		c-0.012,0.158-0.016,0.359-0.014,0.604c0,0.243,0.009,0.44,0.021,0.596c0.013,0.156,0.039,0.273,0.072,0.362
		c0.033,0.091,0.08,0.156,0.139,0.206c0.037,0.026,0.08,0.05,0.14,0.067c0.059,0.022,0.137,0.038,0.233,0.046
		c0.101,0.011,0.229,0.017,0.385,0.022c0.155,0.005,0.349,0.007,0.575,0.007c0.309,0,0.563-0.005,0.769-0.014
		c0.203-0.012,0.361-0.024,0.474-0.049c0.113-0.019,0.188-0.045,0.223-0.075l0.064-0.084c0.017-0.026,0.026-0.071,0.034-0.131
		c0.007-0.057,0.013-0.138,0.018-0.243h1.471v0.24c0.001,0.257-0.017,0.471-0.054,0.647c-0.035,0.173-0.094,0.313-0.176,0.424
		c-0.081,0.11-0.191,0.197-0.328,0.268c-0.081,0.045-0.176,0.079-0.282,0.109c-0.108,0.031-0.24,0.055-0.396,0.068
		c-0.156,0.016-0.349,0.033-0.574,0.038c-0.228,0.006-0.501,0.011-0.82,0.011c-0.421,0-0.789-0.005-1.106-0.011
		c-0.317-0.01-0.593-0.024-0.818-0.043c-0.23-0.024-0.428-0.052-0.586-0.086c-0.158-0.04-0.29-0.085-0.394-0.143
		c-0.104-0.059-0.188-0.131-0.256-0.21c-0.063-0.08-0.118-0.174-0.16-0.284c-0.024-0.063-0.049-0.141-0.066-0.235
		c-0.02-0.087-0.03-0.2-0.042-0.332c-0.01-0.135-0.019-0.29-0.021-0.488c-0.004-0.19-0.007-0.422-0.007-0.69
		c0-0.306,0.005-0.565,0.011-0.765c0.007-0.206,0.016-0.359,0.025-0.467c0.02-0.165,0.049-0.306,0.09-0.426
		c0.042-0.115,0.098-0.218,0.17-0.302c0.07-0.083,0.156-0.156,0.264-0.213c0.076-0.047,0.167-0.084,0.269-0.118
		c0.102-0.03,0.228-0.061,0.374-0.081c0.146-0.022,0.321-0.039,0.526-0.051c0.206-0.012,0.449-0.021,0.733-0.025
		c0.282-0.008,0.613-0.008,0.988-0.008c0.27,0,0.504,0,0.709,0.008c0.206,0.004,0.387,0.018,0.542,0.028
		c0.158,0.014,0.297,0.032,0.415,0.05c0.121,0.022,0.229,0.049,0.325,0.079c0.179,0.059,0.322,0.135,0.432,0.242
		c0.108,0.108,0.188,0.247,0.237,0.418c0.049,0.175,0.073,0.392,0.073,0.652l-0.005,0.088
		C43.086,37.024,43.085,37.074,43.083,37.132"/>
	<path fill="#FFFFFF" d="M43.216,36.418c-0.036-0.162-0.085-0.297-0.146-0.401c-0.061-0.103-0.14-0.19-0.232-0.26
		c-0.068-0.056-0.153-0.101-0.242-0.143c-0.088-0.039-0.198-0.073-0.332-0.098c-0.133-0.025-0.3-0.043-0.498-0.058
		c-0.197-0.015-0.441-0.022-0.729-0.026c-0.29-0.007-0.633-0.009-1.036-0.009s-0.747,0.002-1.036,0.009
		c-0.289,0.004-0.533,0.011-0.729,0.026c-0.199,0.014-0.365,0.032-0.497,0.058c-0.133,0.025-0.244,0.06-0.333,0.098
		c-0.093,0.039-0.172,0.086-0.244,0.143c-0.092,0.07-0.171,0.158-0.232,0.26c-0.061,0.106-0.108,0.24-0.146,0.401
		c-0.037,0.162-0.062,0.362-0.076,0.604c-0.019,0.234-0.023,0.521-0.023,0.856c0,0.356,0.007,0.656,0.021,0.9
		c0.014,0.247,0.04,0.457,0.077,0.621c0.034,0.165,0.083,0.299,0.146,0.407c0.062,0.106,0.14,0.193,0.232,0.262
		c0.072,0.059,0.151,0.106,0.244,0.148c0.089,0.038,0.2,0.066,0.333,0.091c0.134,0.027,0.298,0.047,0.499,0.062
		c0.198,0.012,0.442,0.021,0.735,0.025c0.286,0.008,0.63,0.008,1.028,0.008h0.013c0.398,0,0.742,0,1.029-0.008
		c0.285-0.004,0.526-0.013,0.725-0.025c0.198-0.015,0.363-0.035,0.496-0.062c0.133-0.025,0.242-0.054,0.333-0.091
		c0.09-0.042,0.175-0.089,0.243-0.148c0.094-0.068,0.173-0.153,0.232-0.259c0.062-0.104,0.109-0.238,0.146-0.403
		c0.037-0.164,0.063-0.368,0.078-0.612c0.018-0.241,0.022-0.541,0.022-0.884c0-0.345-0.006-0.639-0.022-0.88
		C43.278,36.788,43.253,36.584,43.216,36.418 M41.827,38.519c-0.015,0.124-0.037,0.22-0.068,0.289s-0.074,0.125-0.131,0.168
		l-0.129,0.073c-0.05,0.021-0.11,0.037-0.184,0.052c-0.074,0.01-0.166,0.019-0.281,0.027c-0.113,0.006-0.252,0.015-0.42,0.019
		c-0.168,0.002-0.367,0.004-0.604,0.004h-0.013c-0.235,0-0.438-0.001-0.605-0.004c-0.173-0.002-0.313-0.009-0.429-0.016
		c-0.115-0.006-0.211-0.017-0.284-0.029c-0.072-0.013-0.136-0.028-0.185-0.05l-0.127-0.076l-0.107-0.122
		c-0.027-0.045-0.053-0.103-0.067-0.173c-0.016-0.071-0.026-0.156-0.032-0.26c-0.008-0.104-0.012-0.23-0.012-0.383
		c0-0.199,0.005-0.373,0.013-0.509c0.006-0.136,0.02-0.248,0.035-0.336c0.017-0.088,0.039-0.156,0.068-0.211
		c0.027-0.056,0.061-0.104,0.098-0.142c0.037-0.034,0.09-0.07,0.157-0.085c0.069-0.024,0.163-0.041,0.282-0.051
		c0.122-0.013,0.278-0.021,0.475-0.022c0.19,0,0.436-0.002,0.722-0.002c0.267,0,0.491,0.002,0.675,0.002
		c0.185,0.001,0.332,0.004,0.448,0.017c0.117,0.008,0.209,0.018,0.275,0.035c0.07,0.016,0.125,0.037,0.165,0.064l0.11,0.098
		c0.031,0.037,0.061,0.088,0.08,0.145c0.025,0.063,0.043,0.133,0.056,0.221c0.014,0.086,0.023,0.198,0.029,0.326
		s0.008,0.282,0.008,0.462C41.847,38.242,41.839,38.399,41.827,38.519z"/>
	<path fill="#FFFFFF" d="M42.905,36.148c-0.036-0.108-0.085-0.2-0.146-0.268c-0.063-0.076-0.141-0.14-0.231-0.195l-0.138-0.082
		l-0.143-0.052c-0.056-0.013-0.119-0.024-0.199-0.033c-0.082-0.006-0.188-0.014-0.314-0.014c-0.129-0.005-0.287-0.008-0.48-0.008
		h-0.703H40h-3.007v4.835h1.469v-1.226H40h0.543c0.15,0,0.273,0.001,0.371,0.001c0.096,0.004,0.174,0.013,0.229,0.018
		c0.056,0.01,0.103,0.024,0.134,0.043l0.086,0.066c0.037,0.041,0.067,0.089,0.088,0.154c0.021,0.062,0.037,0.148,0.043,0.253
		c0.01,0.109,0.014,0.256,0.014,0.434v0.256h1.449l-0.002-0.449c0.01-0.277,0.006-0.509-0.014-0.682
		c-0.02-0.18-0.059-0.313-0.117-0.414c-0.063-0.103-0.148-0.178-0.264-0.228c-0.116-0.049-0.266-0.081-0.453-0.098
		c0.096-0.016,0.18-0.029,0.247-0.05c0.065-0.018,0.126-0.039,0.176-0.063l0.146-0.091c0.063-0.048,0.117-0.105,0.162-0.17
		c0.041-0.06,0.074-0.139,0.101-0.227c0.026-0.088,0.045-0.202,0.054-0.329c0.012-0.129,0.016-0.284,0.016-0.463
		c0-0.208-0.006-0.386-0.021-0.538C42.969,36.378,42.942,36.25,42.905,36.148 M41.498,37.634c-0.023,0.082-0.064,0.14-0.123,0.172
		l-0.056,0.038l-0.071,0.024c-0.029,0.002-0.07,0.005-0.129,0.01c-0.054,0.004-0.127,0.007-0.222,0.007
		c-0.097,0.004-0.215,0.007-0.362,0.01h-0.537H38.46v-1.188h1.538h0.537c0.166,0.001,0.295,0.002,0.391,0.002
		c0.096,0.005,0.168,0.005,0.218,0.01l0.108,0.011l0.074,0.025l0.122,0.092c0.03,0.045,0.052,0.102,0.065,0.171
		c0.015,0.07,0.021,0.16,0.021,0.267C41.537,37.435,41.523,37.551,41.498,37.634z"/>
	<path fill="#FFFFFF" d="M40.01,35.497h-1.139l-2.561,4.835h1.684l0.412-0.819h1.604h1.594l0.412,0.819h1.674l-2.527-4.835H40.01z
		 M40.01,38.452h-1.081l0.935-1.833h0.146h0.145l0.936,1.833H40.01z"/>
</g>
</svg>
