<?xml version="1.0" encoding="utf-8"?>
<!-- Generator: Adobe Illustrator 15.1.0, SVG Export Plug-In . SVG Version: 6.00 Build 0)  -->
<!DOCTYPE svg PUBLIC "-//W3C//DTD SVG 1.1//EN" "http://www.w3.org/Graphics/SVG/1.1/DTD/svg11.dtd">
<svg version="1.1" id="Camada_1" xmlns="http://www.w3.org/2000/svg" xmlns:xlink="http://www.w3.org/1999/xlink" x="0px" y="0px"
	 width="80px" height="80px" viewBox="0 0 80 80" enable-background="new 0 0 80 80" xml:space="preserve">
<g>
	<rect x="13.833" y="56.936" fill="#FFFFFF" width="0.786" height="9.299"/>
	<rect x="17.375" y="56.936" fill="#FFFFFF" width="1.983" height="9.299"/>
	<rect x="21.397" y="56.936" fill="#FFFFFF" width="2.479" height="9.299"/>
	<rect x="26.514" y="56.936" fill="#FFFFFF" width="3.809" height="9.299"/>
	<rect x="40.036" y="56.936" fill="#FFFFFF" width="1.904" height="9.299"/>
	<rect x="35.768" y="56.936" fill="#FFFFFF" width="2.57" height="9.299"/>
	<rect x="32.101" y="56.936" fill="#FFFFFF" width="1.969" height="9.299"/>
	<rect x="62.68" y="47.635" fill="#FFFFFF" width="1.904" height="9.301"/>
	<rect x="58.412" y="47.635" fill="#FFFFFF" width="2.57" height="9.301"/>
	<rect x="54.744" y="47.635" fill="#FFFFFF" width="1.969" height="9.301"/>
	<rect x="49.982" y="47.635" fill="#FFFFFF" width="2.896" height="9.301"/>
	<polygon fill="none" stroke="#FFFFFF" stroke-miterlimit="10" points="35.73,21.884 35.73,31.78 44.841,31.78 	"/>
	<polygon fill="none" stroke="#FFFFFF" stroke-miterlimit="10" points="59.664,22.456 68.775,22.456 59.664,12.559 	"/>
	<path fill="#FFFFFF" d="M74.432,21.67c-0.105-0.417-0.314-0.785-0.629-1.1L60.764,6.118c-0.104-0.103-0.471-0.314-1.1-0.628
		c-0.314-0.209-0.785-0.314-1.414-0.314H33.116c-0.941,0-1.807,0.368-2.592,1.1c-0.785,0.734-1.178,1.571-1.178,2.513v3.769h4.971
		c0.021,0,0.037,0.002,0.057,0.002v-2.357h20.263v12.881c0,1.153,0.445,2.174,1.336,3.063c0.891,0.891,1.91,1.335,3.064,1.335
		h10.523V60.47h-16.68v5.026h18.408c0.941,0,1.729-0.415,2.355-1.256c0.629-0.838,0.943-1.778,0.943-2.828V23.083
		C74.588,22.456,74.533,21.985,74.432,21.67z M59.664,22.456v-9.897l9.111,9.897H59.664z"/>
	<path fill="#FFFFFF" d="M50.496,30.995c-0.105-0.417-0.313-0.786-0.627-1.1L36.831,15.444c-0.105-0.104-0.471-0.314-1.1-0.629
		c-0.305-0.202-0.76-0.305-1.357-0.312c-0.02,0-0.036-0.002-0.057-0.002h-4.971H9.183c-0.942,0-1.807,0.368-2.592,1.1
		c-0.785,0.734-1.178,1.57-1.178,2.513V70.74c0,1.047,0.393,1.99,1.178,2.826c0.785,0.84,1.649,1.258,2.592,1.258h38.171
		c0.943,0,1.73-0.418,2.357-1.258c0.629-0.836,0.943-1.779,0.943-2.826v-5.242v-5.027V32.409
		C50.654,31.78,50.6,31.309,50.496,30.995z M35.73,21.884l9.109,9.896H35.73V21.884z M45.627,65.498v4.299H10.438v-50.27h18.907
		h1.357v12.881c0,1.154,0.444,2.175,1.336,3.063c0.695,0.698,1.475,1.112,2.334,1.263c0.237,0.042,0.479,0.072,0.729,0.072h10.525
		V60.47V65.498L45.627,65.498z"/>
</g>
</svg>
