<?xml version="1.0" encoding="utf-8"?>
<!-- Generator: Adobe Illustrator 15.1.0, SVG Export Plug-In . SVG Version: 6.00 Build 0)  -->
<!DOCTYPE svg PUBLIC "-//W3C//DTD SVG 1.1//EN" "http://www.w3.org/Graphics/SVG/1.1/DTD/svg11.dtd">
<svg version="1.1" id="Camada_1" xmlns="http://www.w3.org/2000/svg" xmlns:xlink="http://www.w3.org/1999/xlink" x="0px" y="0px"
	 width="80px" height="80px" viewBox="0 0 80 80" enable-background="new 0 0 80 80" xml:space="preserve">
<g>
	<path fill="#FFFFFF" d="M27.115,62.258c0.371,0.391,0.742,0.818,1.113,1.281c0.371,0.465,0.802,1.061,1.294,1.781
		c0.491,0.725,0.886,1.522,1.184,2.395c0.297,0.873,0.446,1.729,0.446,2.561c0,1.191-0.438,2.197-1.311,3.023
		c-0.871,0.824-1.92,1.24-3.145,1.24c-0.779,0-1.499-0.172-2.158-0.516c-0.658-0.345-1.184-0.813-1.572-1.406
		c-0.15-0.242-0.289-0.51-0.42-0.807c-0.203-0.505-0.306-1.013-0.306-1.535v-0.109c0.02-1.559,0.613-3.258,1.782-5.094
		c0.371-0.578,0.918-1.291,1.643-2.146c0.335-0.369,0.539-0.592,0.612-0.668l0.027-0.025c0.149-0.112,0.279-0.168,0.392-0.168
		c0.11,0,0.24,0.056,0.389,0.168L27.115,62.258z M26.697,72.977c0.76,0,1.414-0.272,1.962-0.82c0.548-0.549,0.822-1.2,0.822-1.961
		c0-0.391-0.075-0.762-0.224-1.114c-0.242,0.907-0.706,1.692-1.393,2.353c-0.687,0.661-1.484,1.082-2.394,1.27
		C25.88,72.885,26.287,72.977,26.697,72.977z"/>
	<path fill="#FFFFFF" d="M69.753,45.17H59.01c-0.29,0-0.527,0.559-0.527,1.244v3.174h-8.537c-9.17,0-16.63-7.459-16.63-16.629
		V17.267h2.729c0.685,0,1.241-0.242,1.241-0.532V5.993c0-0.29-0.556-0.532-1.241-0.532H10.958c-0.685,0-1.243,0.242-1.243,0.532
		v10.743c0,0.29,0.558,0.532,1.243,0.532h3.1V32.96c0,11.265,4.712,20.896,12.856,27.479c-1.471-3.195-2.378-5.99-3.734-9.236
		l-0.925-2.212l2.117,1.104c1.231,0.644,2.451,1.313,3.675,1.974c-0.734-1.32-1.477-2.638-2.185-3.974l-0.501-0.946l0.984,0.237
		c1.988,0.482,3.982,0.945,5.959,1.502c-1.707-0.112-2.377,0.263-4.074,0.087c1.154,1.7,2.295,3.413,3.404,5.143l1.441,2.25
		l-2.445-1.18c-1.321-0.634-2.625-1.302-3.934-1.959c1.236,2.932,3.061,6.207,4.203,9.18l0.381,0.994
		c5.781,3.981,11.126,5.444,18.664,5.444h8.537v2.652c0,0.685,0.237,1.244,0.527,1.244h10.744c0.29,0,0.533-0.558,0.533-1.244
		V46.415C70.287,45.729,70.044,45.17,69.753,45.17z"/>
	<path fill="#FFFFFF" d="M27.43,60.863c0.014,0.029,0.025,0.058,0.039,0.087c0.03,0.004,0.061,0.008,0.092,0.012
		C27.518,60.928,27.472,60.898,27.43,60.863z"/>
</g>
</svg>
